<?xml version="1.0" encoding="UTF-8" standalone="no"?>
<!-- Created with Inkscape (http://www.inkscape.org/) -->

<svg
   xmlns:dc="http://purl.org/dc/elements/1.1/"
   xmlns:cc="http://creativecommons.org/ns#"
   xmlns:rdf="http://www.w3.org/1999/02/22-rdf-syntax-ns#"
   xmlns:svg="http://www.w3.org/2000/svg"
   xmlns="http://www.w3.org/2000/svg"
   xmlns:xlink="http://www.w3.org/1999/xlink"
   xmlns:sodipodi="http://sodipodi.sourceforge.net/DTD/sodipodi-0.dtd"
   xmlns:inkscape="http://www.inkscape.org/namespaces/inkscape"
   width="352.84628"
   height="227.68839"
   id="svg2"
   version="1.1"
   inkscape:version="0.91 r13725"
   sodipodi:docname="logo.svg">
  <defs
     id="defs4">
    <inkscape:path-effect
       effect="spiro"
       id="path-effect3867"
       is_visible="true" />
    <inkscape:path-effect
       effect="spiro"
       id="path-effect3863"
       is_visible="true" />
    <linearGradient
       id="linearGradient6923">
      <stop
         style="stop-color:#c90000;stop-opacity:1"
         offset="0"
         id="stop6925" />
      <stop
         style="stop-color:#fcdddd;stop-opacity:1"
         offset="1"
         id="stop6927" />
    </linearGradient>
    <linearGradient
       id="linearGradient6909">
      <stop
         style="stop-color:#6c6c6c;stop-opacity:1;"
         offset="0"
         id="stop6911" />
      <stop
         id="stop6917"
         offset="0.33079669"
         style="stop-color:#ebebeb;stop-opacity:1;" />
      <stop
         style="stop-color:#000000;stop-opacity:1;"
         offset="1"
         id="stop6913" />
    </linearGradient>
    <linearGradient
       inkscape:collect="always"
       xlink:href="#linearGradient6923"
       id="linearGradient4017"
       gradientUnits="userSpaceOnUse"
       gradientTransform="matrix(0.03132205,-3.7024338,1.920085,0.04159172,-95.671319,2089.1598)"
       x1="472.11935"
       y1="245.57568"
       x2="472.16098"
       y2="240.48677" />
    <linearGradient
       inkscape:collect="always"
       xlink:href="#linearGradient6909"
       id="linearGradient4019"
       gradientUnits="userSpaceOnUse"
       gradientTransform="matrix(0.03132205,-3.7024338,1.920085,0.04159172,-95.671319,2089.1597)"
       x1="470.48465"
       y1="238.70427"
       x2="470.36432"
       y2="247.11052" />
    <linearGradient
       inkscape:collect="always"
       xlink:href="#linearGradient6923"
       id="linearGradient4332"
       gradientUnits="userSpaceOnUse"
       gradientTransform="matrix(0.03132205,-3.7024338,1.920085,0.04159172,-95.671319,2089.1598)"
       x1="472.11935"
       y1="245.57568"
       x2="472.16098"
       y2="240.48677" />
    <linearGradient
       inkscape:collect="always"
       xlink:href="#linearGradient6909"
       id="linearGradient4334"
       gradientUnits="userSpaceOnUse"
       gradientTransform="matrix(0.03132205,-3.7024338,1.920085,0.04159172,-95.671319,2089.1597)"
       x1="470.48465"
       y1="238.70427"
       x2="470.36432"
       y2="247.11052" />
  </defs>
  <sodipodi:namedview
     id="base"
     pagecolor="#ffffff"
     bordercolor="#666666"
     borderopacity="1.0"
     inkscape:pageopacity="0.0"
     inkscape:pageshadow="2"
     inkscape:zoom="5.6568544"
     inkscape:cx="160.95722"
     inkscape:cy="61.812435"
     inkscape:document-units="px"
     inkscape:current-layer="layer1"
     showgrid="false"
     inkscape:window-width="1920"
     inkscape:window-height="1021"
     inkscape:window-x="-4"
     inkscape:window-y="0"
     inkscape:window-maximized="1"
     fit-margin-top="0"
     fit-margin-left="0"
     fit-margin-right="0"
     fit-margin-bottom="0" />
  <metadata
     id="metadata7">
    <rdf:RDF>
      <cc:Work
         rdf:about="">
        <dc:format>image/svg+xml</dc:format>
        <dc:type
           rdf:resource="http://purl.org/dc/dcmitype/StillImage" />
        <dc:title />
      </cc:Work>
    </rdf:RDF>
  </metadata>
  <g
     inkscape:label="Layer 1"
     inkscape:groupmode="layer"
     id="layer1"
     transform="translate(-361.65638,-652.86009)">
    <rect
       style="color:#000000;fill:#cccccc;stroke:#000000;stroke-width:2;stroke-linecap:butt;stroke-linejoin:miter;stroke-miterlimit:4;stroke-opacity:1;stroke-dasharray:none;stroke-dashoffset:0;marker:none;visibility:visible;display:inline;overflow:visible;enable-background:accumulate"
       id="rect3072"
       width="158.45734"
       height="80.665474"
       x="456.02438"
       y="786.86218" />
    <g
       style="fill:#ffffff;fill-opacity:1"
       inkscape:export-ydpi="571.98657"
       inkscape:export-xdpi="571.98657"
       inkscape:export-filename="/home/boris/Documents/VPaint/src/images/logo.png"
       id="g4214"
       transform="translate(-82.056159,140.90184)">
      <g
         id="g4216"
         style="font-size:59.45565033px;font-style:normal;font-variant:normal;font-weight:600;font-stretch:normal;text-align:start;line-height:125%;letter-spacing:-3px;word-spacing:0px;writing-mode:lr-tb;text-anchor:start;fill:#ffffff;stroke:none;font-family:Open Sans;-inkscape-font-specification:Open Sans Semi-Bold" />
    </g>
    <text
       xml:space="preserve"
       style="font-size:59.45565033px;font-style:normal;font-variant:normal;font-weight:600;font-stretch:normal;text-align:start;line-height:125%;letter-spacing:-3px;word-spacing:0px;writing-mode:lr-tb;text-anchor:start;fill:#1b5faa;fill-opacity:1;stroke:none;font-family:Open Sans;-inkscape-font-specification:Open Sans Semi-Bold"
       x="457.16653"
       y="749.90247"
       id="text4230"
       sodipodi:linespacing="125%"
       inkscape:export-filename="/home/boris/Documents/VPaint/src/images/logo.png"
       inkscape:export-xdpi="170.58521"
       inkscape:export-ydpi="170.58521"><tspan
         sodipodi:role="line"
         id="tspan4232"
         x="457.16653"
         y="749.90247">aint</tspan></text>
    <text
       inkscape:export-ydpi="170.58521"
       inkscape:export-xdpi="170.58521"
       inkscape:export-filename="/home/boris/Documents/VPaint/src/images/logo.png"
       sodipodi:linespacing="125%"
       id="text4234"
       y="749.90247"
       x="425.60587"
       style="font-size:59.45565033px;font-style:normal;font-variant:normal;font-weight:600;font-stretch:normal;text-align:start;line-height:125%;letter-spacing:-3px;word-spacing:0px;writing-mode:lr-tb;text-anchor:start;fill:#1b5faa;fill-opacity:1;stroke:none;font-family:Open Sans;-inkscape-font-specification:Open Sans Semi-Bold"
       xml:space="preserve"><tspan
         y="749.90247"
         x="425.60587"
         id="tspan4236"
         sodipodi:role="line">P</tspan></text>
    <g
       id="g4290"
       transform="translate(0.32084444,-2.5784149)">
      <rect
         style="color:#000000;fill:#1b5faa;fill-opacity:1;fill-rule:nonzero;stroke:none;stroke-width:2;marker:none;visibility:visible;display:inline;overflow:visible;enable-background:accumulate"
         id="rect3933"
         width="52.164776"
         height="52.682602"
         x="371.94214"
         y="704.32916"
         rx="7.7781744"
         ry="7.7781744" />
      <g
         id="g3094">
        <path
           id="path3092"
           d="m 412.84182,708.9294 c -1.16672,0.0937 -1.83203,0.59958 -1.83203,0.59958 l -0.27525,1.84967 c 1.23842,-0.19431 2.39593,-0.10324 3.47497,0.27372 1.08949,0.38063 2.09117,1.06059 3.00975,2.00221 l 0.9039,-1.67482 c 0,0 -0.3822,-1.78162 -3.05548,-2.72018 -0.6283,-0.22059 -1.19707,-0.32474 -1.69472,-0.34089 -0.18662,-0.006 -0.36447,-0.003 -0.53114,0.0107 z"
           style="fill:#ffffff;fill-opacity:1;stroke:none"
           inkscape:connector-curvature="0" />
        <path
           id="path3090"
           d="m 410.65152,711.91169 c 0,0 -0.87661,0.43384 -1.34573,1.46494 -0.39288,0.86352 -0.0958,1.80051 0.011,2.09395 1.23885,-0.19456 2.42684,-0.10397 3.50622,0.27309 1.08517,0.37912 2.06233,1.03587 2.97787,1.97159 0.005,0.005 0.0261,-0.006 0.0312,-6.3e-4 0.29028,-0.22035 0.91169,-0.78289 1.21697,-1.64988 0.40666,-1.1561 -0.0709,-1.96772 -0.0709,-1.96772 -2.0696,-1.79441 -3.72531,-2.41307 -6.32661,-2.18534 z"
           style="fill:#ffffff;fill-opacity:1;stroke:none"
           inkscape:connector-curvature="0" />
        <path
           id="path3088"
           d="m 409.20252,716.00424 -9.31597,26.88183 c 2.75252,-0.43682 4.62519,0.22783 6.35723,2.15343 l 9.31659,-26.85059 c -2.08076,-1.78811 -3.72495,-2.35363 -6.35786,-2.18472 z"
           style="fill:#ffffff;fill-opacity:1;stroke:none"
           inkscape:connector-curvature="0" />
        <path
           id="path3086"
           d="m 399.7879,743.57473 0.36583,8.83817 5.8033,-6.71216 c -1.44474,-2.12672 -4.2837,-2.50439 -6.16913,-2.12601 z"
           style="fill:#ffffff;fill-opacity:1;stroke:none"
           inkscape:connector-curvature="0" />
        <path
           id="path4277"
           d="m 400.04759,752.42523 -7.31583,0 -14.80585,-42.44344 7.14164,0"
           style="fill:#ffffff;fill-opacity:1;stroke:none"
           inkscape:connector-curvature="0" />
      </g>
    </g>
    <text
       inkscape:export-ydpi="170.58521"
       inkscape:export-xdpi="170.58521"
       inkscape:export-filename="/home/boris/Documents/VPaint/src/images/logo.png"
       sodipodi:linespacing="125%"
       id="text3059"
       y="753.43799"
       x="625.47443"
       style="font-size:59.45565033px;font-style:normal;font-variant:normal;font-weight:600;font-stretch:normal;text-align:start;line-height:125%;letter-spacing:-3px;word-spacing:0px;writing-mode:lr-tb;text-anchor:start;fill:#1b5faa;fill-opacity:1;stroke:none;font-family:Open Sans;-inkscape-font-specification:Open Sans Semi-Bold"
       xml:space="preserve"><tspan
         y="753.43799"
         x="625.47443"
         id="tspan3061"
         sodipodi:role="line">1.5</tspan></text>
    <text
       xml:space="preserve"
       style="font-size:30.81348801px;font-style:normal;font-variant:normal;font-weight:bold;font-stretch:normal;text-align:start;line-height:125%;letter-spacing:-1.55478001px;word-spacing:0px;writing-mode:lr-tb;text-anchor:start;fill:#679fe5;fill-opacity:1;stroke:none;font-family:Dancing Script;-inkscape-font-specification:Dancing Script Bold"
       x="563.87189"
       y="726.69592"
       id="text3063"
       sodipodi:linespacing="125%"
       inkscape:export-filename="/home/boris/Documents/VPaint/src/images/logo.png"
       inkscape:export-xdpi="170.58521"
       inkscape:export-ydpi="170.58521"><tspan
         sodipodi:role="line"
         id="tspan3065"
         x="563.87189"
         y="726.69592">Beta</tspan></text>
    <text
       sodipodi:linespacing="125%"
       id="text3064"
       y="676.85724"
       x="536.69403"
       style="font-size:12px;font-style:normal;font-variant:normal;font-weight:normal;font-stretch:normal;text-indent:0;text-align:center;text-decoration:none;line-height:125%;letter-spacing:0px;word-spacing:0px;text-transform:none;direction:ltr;block-progression:tb;writing-mode:lr-tb;text-anchor:middle;baseline-shift:baseline;color:#000000;fill:#000000;fill-opacity:1;fill-rule:nonzero;stroke:none;stroke-width:1px;marker:none;visibility:visible;display:inline;overflow:visible;enable-background:accumulate;font-family:Sans;-inkscape-font-specification:Sans"
       xml:space="preserve"><tspan
         id="tspan3068"
         y="676.85724"
         x="538.60419"
         sodipodi:role="line">fonts: Open Sans semi-bold; Dancing Script </tspan></text>
    <g
       transform="matrix(1.0735213,0,0,1.0629695,72.179739,47.999136)"
       id="g3060">
      <rect
         ry="7.7781744"
         rx="7.7781744"
         y="704.32916"
         x="371.94214"
         height="52.682602"
         width="52.164776"
         id="rect3062"
         style="color:#000000;display:inline;overflow:visible;visibility:visible;fill:#1b5faa;fill-opacity:1;fill-rule:nonzero;stroke:none;stroke-width:2;marker:none;enable-background:accumulate" />
      <g
         transform="matrix(0.93805478,0.34648699,-0.34648699,0.93805478,383.71832,18.368354)"
         id="g3064"
         style="fill:#ffffff;fill-opacity:1">
        <path
           sodipodi:nodetypes="ccccccscccscccccccccccccccccccccc"
           inkscape:connector-curvature="0"
           id="path3066"
           transform="matrix(0.93805478,-0.34648699,0.34648699,0.93805478,-307.22795,86.503423)"
           style="fill:#ffffff;fill-opacity:1;stroke:none"
           d="m 347.29246,715.86658 c -1.16672,0.0937 -1.83203,0.59958 -1.83203,0.59958 l -0.27525,1.84967 c 1.23842,-0.19431 2.39593,-0.10324 3.47497,0.27372 1.08949,0.38063 2.09117,1.06059 3.00975,2.00221 l 0.9039,-1.67482 c 0,0 -0.3822,-1.78162 -3.05548,-2.72018 -0.6283,-0.22059 -1.19707,-0.32474 -1.69472,-0.34089 -0.18662,-0.006 -0.36447,-0.003 -0.53114,0.0107 z m -2.1903,2.98229 c 0,0 -0.87661,0.43384 -1.34573,1.46494 -0.39288,0.86352 -0.0958,1.80051 0.011,2.09395 1.23885,-0.19456 2.42684,-0.10397 3.50622,0.27309 1.08517,0.37912 2.06233,1.03587 2.97787,1.97159 0.005,0.005 0.0261,-0.006 0.0312,-6.3e-4 0.29028,-0.22035 0.91169,-0.78289 1.21697,-1.64988 0.40666,-1.1561 -0.0709,-1.96772 -0.0709,-1.96772 -2.0696,-1.79441 -3.72531,-2.41307 -6.32661,-2.18534 z m -1.449,4.09255 -9.31597,26.88183 c 2.75252,-0.43682 4.62519,0.22783 6.35723,2.15343 l 9.31659,-26.85059 c -2.08076,-1.78811 -3.72495,-2.35363 -6.35786,-2.18472 z m -9.41462,27.57049 0.36583,8.83817 5.8033,-6.71216 c -1.44474,-2.12672 -4.2837,-2.50439 -6.16913,-2.12601 z m 0.25969,8.8505 -7.31583,0 -14.80585,-42.44344 7.14164,0" />
      </g>
    </g>
    <g
       id="g3095"
       transform="matrix(0.99703537,0,0,0.98797444,172.45536,103.19534)"
       inkscape:export-xdpi="25.713844"
       inkscape:export-ydpi="25.713844">
      <rect
         style="color:#000000;display:inline;overflow:visible;visibility:visible;fill:#1b5faa;fill-opacity:1;fill-rule:nonzero;stroke:#ffffff;stroke-width:4;stroke-miterlimit:4;stroke-dasharray:none;marker:none;enable-background:accumulate"
         id="rect3097"
         width="52.164776"
         height="52.682602"
         x="371.94214"
         y="704.32916"
         rx="7.7781744"
         ry="7.7781744" />
      <g
         style="fill:#ffffff;fill-opacity:1"
         id="g3099"
         transform="matrix(0.93805478,0.34648699,-0.34648699,0.93805478,383.71832,18.368354)">
        <path
           d="m 347.29246,715.86658 c -1.16672,0.0937 -1.83203,0.59958 -1.83203,0.59958 l -0.27525,1.84967 c 1.23842,-0.19431 2.39593,-0.10324 3.47497,0.27372 1.08949,0.38063 2.09117,1.06059 3.00975,2.00221 l 0.9039,-1.67482 c 0,0 -0.3822,-1.78162 -3.05548,-2.72018 -0.6283,-0.22059 -1.19707,-0.32474 -1.69472,-0.34089 -0.18662,-0.006 -0.36447,-0.003 -0.53114,0.0107 z m -2.1903,2.98229 c 0,0 -0.87661,0.43384 -1.34573,1.46494 -0.39288,0.86352 -0.0958,1.80051 0.011,2.09395 1.23885,-0.19456 2.42684,-0.10397 3.50622,0.27309 1.08517,0.37912 2.06233,1.03587 2.97787,1.97159 0.005,0.005 0.0261,-0.006 0.0312,-6.3e-4 0.29028,-0.22035 0.91169,-0.78289 1.21697,-1.64988 0.40666,-1.1561 -0.0709,-1.96772 -0.0709,-1.96772 -2.0696,-1.79441 -3.72531,-2.41307 -6.32661,-2.18534 z m -1.449,4.09255 -9.31597,26.88183 c 2.75252,-0.43682 4.62519,0.22783 6.35723,2.15343 l 9.31659,-26.85059 c -2.08076,-1.78811 -3.72495,-2.35363 -6.35786,-2.18472 z m -9.41462,27.57049 0.36583,8.83817 5.8033,-6.71216 c -1.44474,-2.12672 -4.2837,-2.50439 -6.16913,-2.12601 z m 0.25969,8.8505 -7.31583,0 -14.80585,-42.44344 7.14164,0"
           style="fill:#ffffff;fill-opacity:1;stroke:none"
           transform="matrix(0.93805478,-0.34648699,0.34648699,0.93805478,-307.22795,86.503423)"
           id="path3101"
           inkscape:connector-curvature="0"
           sodipodi:nodetypes="ccccccscccscccccccccccccccccccccc" />
      </g>
    </g>
  </g>
</svg>
